<svg width="1322" height="598" viewBox="0 0 1322 598" fill="none" xmlns="http://www.w3.org/2000/svg">
<path d="M1562.57 670.033H1456.81L1456.81 709.482H1456.81V720.738H1456.81V834.589H1573.03V709.481L1478.41 709.479V720.735L1562.57 720.737V823.333H1467.27V720.735H1467.27V709.479H1467.27L1467.26 681.289H1573.03V459.388H1562.57V670.033Z" fill="white" fill-opacity="0.5"/>
<path d="M1430.47 834.59V720.738H1445.67V709.482H1420.02V823.334H1224.48V834.59L1430.47 834.59Z" fill="white" fill-opacity="0.5"/>
<path d="M1445.61 679.452H1428.18V698.212H1445.61V679.452Z" fill="white" fill-opacity="0.5"/>
<path d="M1551.59 510.298L1551.59 510.297C1549.18 506.937 1536.06 488.66 1537.96 476.928C1540.04 464.09 1548.97 475.347 1549.58 476.928C1550.02 477.77 1549.08 477.797 1548.56 477.704C1546.45 477.289 1542.39 478.155 1542.96 484.943C1543.56 492.07 1549.51 501.54 1551.4 504.549L1551.4 504.551L1551.4 504.553L1551.4 504.557C1551.76 505.126 1551.97 505.462 1551.97 505.504V510.831C1551.95 510.797 1551.82 510.614 1551.59 510.298Z" fill="white" fill-opacity="0.5"/>
<path d="M1548.77 516.956C1551.59 521.643 1552.44 527.187 1552.4 530.909C1552.47 545.767 1545.02 556.698 1536.04 564.2C1527.91 570.993 1518.33 575.156 1511.27 577.128V589.617C1522.78 587.991 1531.98 582.837 1538.46 577.887C1541.95 575.215 1544.64 572.616 1546.44 570.695C1547.34 569.736 1548.02 568.949 1548.46 568.409L1548.78 568.015L1548.96 567.796L1549.07 567.648L1549.1 567.612L1553.75 561.345V660.194H1512.28L1517.6 654.566H1548.52V576.334C1546.69 578.155 1544.34 580.294 1541.48 582.475C1535.55 587.011 1527.42 591.761 1517.37 594.167C1518.59 595.185 1519.86 596.444 1521.13 597.998C1526.69 604.84 1531.85 617.101 1532.26 639.005H1536.32V593.061L1541.54 588.979V644.633H1527.06V641.819C1527.06 619.019 1521.9 607.496 1517.19 601.706C1514.83 598.802 1512.51 597.254 1510.85 596.435C1510.42 596.226 1510.04 596.064 1509.71 595.938C1509.39 595.817 1509.11 595.73 1508.89 595.669C1508.77 595.634 1508.67 595.607 1508.58 595.588C1508.54 595.577 1508.5 595.568 1508.46 595.561L1508.42 595.552C1502.67 595.403 1494.08 596.986 1486.93 602.125C1479.86 607.205 1474.02 615.869 1473.81 630.451C1473.82 648.402 1486.7 655.55 1494.89 655.809C1498.91 655.937 1503.66 654.49 1507.41 651.04C1511.1 647.652 1513.99 642.182 1514.18 633.868C1514.37 625.605 1511.69 621.386 1508.8 619.117C1505.76 616.717 1502.04 616.154 1499.83 616.154C1498.06 616.154 1494.96 617.253 1492.37 619.72C1489.89 622.092 1488.05 625.561 1488.33 630.25C1488.63 635.365 1490.15 637.278 1491.23 638.072C1492.41 638.944 1493.74 639.002 1494.74 639.005L1494.75 639.002C1494.79 638.994 1494.91 638.965 1495.14 638.888C1495.48 638.768 1495.93 638.578 1496.42 638.316C1497.28 638 1499.97 636.202 1500.32 634.004C1500.75 631.257 1499.04 630.597 1498.3 631.138C1498.09 631.296 1497.87 631.564 1497.63 631.861C1497.05 632.585 1496.33 633.483 1495.14 633.383C1492.37 633.151 1491.9 629.474 1493.38 627.927C1493.49 627.811 1493.6 627.694 1493.71 627.577C1495.06 626.134 1496.42 624.682 1499.42 624.753C1502.65 624.831 1504.99 627.153 1505.31 628.507C1505.64 629.861 1506.89 636.09 1502.99 640.057C1501.71 641.527 1500.11 642.629 1498.74 643.36C1498.04 643.732 1497.35 644.033 1496.74 644.245C1496.19 644.436 1495.48 644.633 1494.81 644.633H1494.75C1493.67 644.634 1490.88 644.636 1488.28 642.718C1485.49 640.665 1483.48 636.884 1483.11 630.61C1482.71 623.911 1485.42 618.834 1488.9 615.509C1492.29 612.278 1496.58 610.526 1499.83 610.526C1502.64 610.526 1507.61 611.204 1511.89 614.575C1516.34 618.075 1519.63 624.153 1519.41 634.004C1519.19 643.803 1515.7 650.822 1510.81 655.321C1505.98 659.76 1499.93 661.599 1494.73 661.435C1484.47 661.11 1468.58 652.195 1468.58 630.43V630.409L1468.58 630.388C1468.82 613.899 1475.55 603.53 1484.02 597.444C1491.27 592.233 1499.66 590.242 1506.04 589.953V572.643L1508.09 572.159C1514.68 570.609 1524.62 566.613 1532.83 559.754C1541.01 552.924 1547.24 543.477 1547.17 530.914V530.887L1547.17 530.86C1547.21 527.929 1546.5 523.542 1544.38 520.013C1542.36 516.65 1539.01 513.949 1533.25 514.049C1529.45 514.115 1526.77 515.074 1524.86 516.36C1522.94 517.647 1521.66 519.36 1520.8 521.174C1519.93 523.006 1519.49 524.928 1519.3 526.543C1519.2 527.346 1519.17 528.05 1519.18 528.599C1519.18 528.874 1519.19 529.101 1519.2 529.274L1519.22 529.482L1519.22 529.541L1519.23 529.561C1519.25 529.709 1519.28 529.863 1519.3 530.021C1519.34 530.294 1519.37 530.582 1519.41 530.883L1519.41 530.891C1519.59 532.423 1519.82 534.293 1520.77 536.235C1521.84 538.428 1523.91 540.694 1528.75 541.001C1530.98 541.142 1532.1 540.413 1532.7 539.659C1532.94 538.661 1533.09 536.332 1531.74 534.999C1531.22 534.487 1530.5 534.109 1529.75 533.709C1528.05 532.807 1526.14 531.794 1525.78 528.892C1525.27 524.703 1526.98 522.684 1528.44 522.431C1529.91 522.179 1533.66 521.927 1536.66 525.409C1539.66 528.892 1538.96 535.351 1538.82 536.235C1538.8 536.364 1538.78 536.551 1538.75 536.785C1538.61 538.151 1538.3 541.104 1536.66 543.337C1534.8 545.654 1531.98 546.843 1528.44 546.619C1521.75 546.195 1518.05 542.764 1516.14 538.858C1514.66 535.839 1514.29 532.438 1514.15 531.099C1514.12 530.864 1514.1 530.692 1514.09 530.598C1513.92 529.637 1513.87 527.874 1514.11 525.835C1514.36 523.745 1514.93 521.157 1516.15 518.607C1517.37 516.038 1519.25 513.496 1522.08 511.588C1524.92 509.679 1528.56 508.501 1533.17 508.422C1540.87 508.288 1545.85 512.092 1548.77 516.956Z" fill="white" fill-opacity="0.5"/>
<path d="M1277.25 807.139C1281.6 810.17 1286.75 811.089 1290.21 811.042C1304.01 811.116 1314.17 803.096 1321.14 793.43C1327.45 784.677 1331.31 774.371 1333.15 766.763H1344.75C1343.24 779.155 1338.45 789.06 1333.85 796.034C1331.37 799.798 1328.95 802.687 1327.17 804.626C1326.28 805.595 1325.55 806.325 1325.05 806.805L1324.68 807.151L1324.48 807.337L1324.34 807.46L1324.31 807.49L1318.48 812.499H1410.31V767.853L1405.08 773.58V806.871H1332.41C1334.1 804.902 1336.09 802.365 1338.11 799.292C1342.33 792.904 1346.74 784.15 1348.98 773.331C1349.92 774.648 1351.09 776.018 1352.53 777.38C1358.89 783.372 1370.28 788.925 1390.63 789.363V793.73H1347.95L1344.16 799.358H1395.86V783.763H1393.24C1372.06 783.763 1361.36 778.216 1355.98 773.146C1353.28 770.602 1351.84 768.106 1351.08 766.315C1350.89 765.858 1350.74 765.445 1350.62 765.087C1350.51 764.74 1350.43 764.444 1350.37 764.21C1350.34 764.077 1350.31 763.965 1350.29 763.873C1350.28 763.824 1350.28 763.782 1350.27 763.745L1350.26 763.696C1350.12 757.508 1351.59 748.26 1356.37 740.563C1361.09 732.953 1369.14 726.673 1382.68 726.447C1399.36 726.458 1406 740.316 1406.24 749.133C1406.36 753.467 1405.01 758.575 1401.81 762.615C1398.66 766.584 1393.58 769.699 1385.86 769.9C1378.18 770.101 1374.26 767.216 1372.15 764.114C1369.92 760.834 1369.4 756.833 1369.4 754.454C1369.4 752.545 1370.42 749.208 1372.71 746.425C1374.92 743.749 1378.14 741.771 1382.5 742.071C1387.25 742.399 1389.02 744.036 1389.76 745.197C1390.57 746.471 1390.63 747.903 1390.63 748.97L1390.63 748.981C1390.62 749.024 1390.59 749.16 1390.52 749.404C1390.41 749.774 1390.23 750.253 1389.99 750.784C1389.69 751.704 1388.02 754.605 1385.98 754.976C1383.43 755.44 1382.82 753.602 1383.32 752.809C1383.47 752.578 1383.71 752.347 1383.99 752.09C1384.66 751.463 1385.5 750.686 1385.41 749.404C1385.19 746.425 1381.77 745.921 1380.34 747.507C1380.23 747.626 1380.12 747.744 1380.01 747.862C1378.67 749.32 1377.32 750.786 1377.39 754.009C1377.46 757.491 1379.62 760.007 1380.88 760.355C1382.13 760.703 1387.92 762.058 1391.61 757.859C1392.97 756.483 1393.99 754.757 1394.67 753.278C1395.02 752.526 1395.3 751.788 1395.5 751.126C1395.67 750.534 1395.86 749.772 1395.86 749.05V748.986C1395.86 747.821 1395.86 744.824 1394.08 742.02C1392.17 739.018 1388.66 736.857 1382.83 736.455C1376.61 736.025 1371.89 738.94 1368.8 742.691C1365.8 746.336 1364.17 750.959 1364.17 754.454C1364.17 757.481 1364.8 762.829 1367.93 767.437C1371.18 772.222 1376.98 775.527 1385.98 775.527C1395.08 775.29 1401.61 771.539 1405.78 766.269C1409.91 761.07 1411.62 754.566 1411.46 748.967C1411.16 737.921 1402.88 720.819 1382.66 720.819H1382.64L1382.62 720.82C1367.31 721.067 1357.67 728.321 1352.02 737.438C1347.18 745.243 1345.33 754.272 1345.06 761.135H1328.98L1328.53 763.349C1327.09 770.444 1323.38 781.142 1317.01 789.98C1310.66 798.78 1301.89 805.485 1290.21 805.414H1290.19L1290.16 805.415C1287.44 805.455 1283.37 804.695 1280.09 802.414C1276.96 800.239 1274.45 796.634 1274.55 790.433C1274.61 786.337 1275.5 783.449 1276.69 781.393C1277.89 779.335 1279.48 777.955 1281.17 777.025C1282.87 776.087 1284.65 775.616 1286.15 775.412C1286.9 775.31 1287.55 775.276 1288.06 775.278C1288.32 775.279 1288.53 775.289 1288.69 775.302L1288.88 775.322L1288.94 775.33L1288.96 775.333C1289.1 775.361 1289.24 775.386 1289.39 775.41C1289.64 775.452 1289.91 775.489 1290.19 775.528L1290.19 775.529C1291.62 775.727 1293.35 775.969 1295.16 776.992C1297.19 778.148 1299.3 780.379 1299.59 785.587C1299.72 787.986 1299.04 789.189 1298.34 789.84C1297.41 790.099 1295.25 790.254 1294.01 788.8C1293.53 788.242 1293.18 787.474 1292.81 786.662C1291.97 784.831 1291.03 782.775 1288.34 782.39C1284.44 781.835 1282.57 783.681 1282.33 785.257C1282.1 786.832 1281.87 790.869 1285.1 794.1C1288.34 797.33 1294.34 796.573 1295.16 796.422C1295.28 796.4 1295.45 796.379 1295.67 796.352C1296.94 796.199 1299.68 795.867 1301.76 794.1C1303.91 792.099 1305.01 789.065 1304.8 785.257C1304.41 778.048 1301.22 774.072 1297.59 772.013C1294.79 770.422 1291.63 770.024 1290.39 769.867C1290.17 769.84 1290.01 769.819 1289.92 769.801C1289.03 769.621 1287.39 769.57 1285.5 769.828C1283.55 770.093 1281.15 770.71 1278.78 772.017C1276.4 773.333 1274.03 775.358 1272.26 778.408C1270.49 781.461 1269.39 785.383 1269.32 790.343C1269.2 798.633 1272.73 803.993 1277.25 807.139Z" fill="white" fill-opacity="0.5"/>
<path d="M1276.29 807.393L1276.29 807.392C1273.17 804.796 1256.19 790.674 1245.29 792.72C1233.36 794.958 1243.82 804.569 1245.29 805.228C1246.07 805.702 1246.1 804.689 1246.01 804.124C1245.63 801.859 1246.43 797.484 1252.74 798.101C1259.36 798.749 1268.15 805.146 1270.95 807.179L1270.95 807.18L1270.95 807.181L1270.96 807.184C1271.48 807.568 1271.8 807.795 1271.84 807.795H1276.79C1276.75 807.778 1276.58 807.636 1276.29 807.393Z" fill="white" fill-opacity="0.5"/>
<path fill-rule="evenodd" clip-rule="evenodd" d="M1509.57 729.34C1511.66 728.987 1513.79 728.803 1515.97 728.803C1518.15 728.803 1520.28 728.987 1522.37 729.34C1539.7 732.278 1553.4 746.942 1556.24 765.549C1556.6 767.891 1556.79 770.293 1556.79 772.742C1556.79 775.19 1556.6 777.592 1556.24 779.934C1553.4 798.541 1539.7 813.205 1522.37 816.143C1520.28 816.496 1518.15 816.68 1515.97 816.68C1513.79 816.68 1511.66 816.496 1509.57 816.143C1492.25 813.205 1478.55 798.541 1475.7 779.934C1475.34 777.592 1475.15 775.19 1475.15 772.742C1475.15 770.293 1475.34 767.891 1475.7 765.549C1478.55 746.942 1492.25 732.278 1509.57 729.34ZM1514.45 732.119C1513.4 732.164 1512.36 732.254 1511.33 732.389V813.093C1512.36 813.228 1513.4 813.319 1514.45 813.364V732.119ZM1517.5 732.119V813.364C1518.55 813.319 1519.58 813.228 1520.61 813.093V732.389C1519.58 732.254 1518.55 732.164 1517.5 732.119ZM1523.66 732.929V771.1H1553.71C1553.66 769.871 1553.57 768.656 1553.42 767.457H1526.69V740.563L1528.62 741.132L1528.63 741.134L1528.62 741.132L1528.63 741.133L1528.63 741.134L1528.64 741.138L1528.68 741.148C1528.71 741.157 1528.74 741.17 1528.79 741.186C1528.85 741.204 1528.91 741.225 1528.99 741.252C1529.05 741.275 1529.13 741.301 1529.21 741.331C1529.56 741.46 1530.05 741.656 1530.66 741.933C1531.86 742.486 1533.51 743.363 1535.3 744.674C1538.89 747.299 1543.1 751.678 1545.5 758.66L1546.26 760.871H1532.91V757.588H1541.77C1539.59 752.664 1536.39 749.439 1533.59 747.391C1532.13 746.321 1530.77 745.576 1529.74 745.086V764.174H1552.9C1549.78 748.501 1538.26 736.178 1523.66 732.929ZM1553.71 774.383H1523.66V812.554C1538.26 809.305 1549.78 796.982 1552.9 781.309H1529.74V800.397C1530.77 799.907 1532.13 799.162 1533.59 798.092C1536.39 796.044 1539.59 792.819 1541.77 787.895H1532.91V784.612H1546.26L1545.5 786.823C1543.1 793.804 1538.89 798.184 1535.3 800.808C1533.51 802.119 1531.86 802.997 1530.66 803.55C1530.05 803.827 1529.56 804.023 1529.21 804.152C1529.03 804.216 1528.89 804.264 1528.79 804.297L1528.73 804.317L1528.68 804.334L1528.64 804.345L1528.63 804.349L1528.63 804.35L1528.62 804.35L1528.62 804.351L1526.69 804.92V778.025H1553.42C1553.57 776.827 1553.66 775.612 1553.71 774.383ZM1508.28 812.554V774.383H1478.23C1478.28 775.612 1478.38 776.827 1478.52 778.025H1505.25V804.92L1503.32 804.351L1503.31 804.349L1503.32 804.35L1503.32 804.35L1503.31 804.349L1503.3 804.345L1503.27 804.334C1503.24 804.326 1503.2 804.313 1503.15 804.297C1503.05 804.264 1502.91 804.216 1502.73 804.152C1502.38 804.023 1501.89 803.827 1501.29 803.55C1500.08 802.997 1498.43 802.119 1496.64 800.808C1493.05 798.184 1488.84 793.804 1486.44 786.823L1485.68 784.612H1499.03V787.895H1490.17C1492.35 792.819 1495.55 796.044 1498.35 798.092C1499.82 799.162 1501.17 799.907 1502.2 800.397V781.309H1479.04C1482.17 796.982 1493.69 809.305 1508.28 812.554ZM1478.23 771.1H1508.28V732.929C1493.69 736.178 1482.17 748.501 1479.04 764.174H1502.2V745.086C1501.17 745.576 1499.82 746.321 1498.35 747.391C1495.55 749.439 1492.35 752.664 1490.17 757.588H1499.03V760.871H1485.68L1486.44 758.66C1488.84 751.678 1493.05 747.299 1496.64 744.674C1498.43 743.363 1500.08 742.486 1501.29 741.933C1501.89 741.656 1502.38 741.46 1502.73 741.331C1502.91 741.267 1503.05 741.219 1503.15 741.186C1503.2 741.17 1503.24 741.157 1503.27 741.148L1503.3 741.138L1503.31 741.134L1503.32 741.133L1503.32 741.132L1503.32 741.132L1505.25 740.563V767.457H1478.52C1478.38 768.656 1478.28 769.871 1478.23 771.1Z" fill="white" fill-opacity="0.5"/>
<path d="M1562.57 -32.2844H1456.81L1456.81 -71.7338H1456.81V-82.9898H1456.81V-196.841H1573.03V-71.733L1478.41 -71.7312V-82.9873L1562.57 -82.989V-185.585H1467.27V-82.9871H1467.27V-71.731H1467.27L1467.26 -43.5405H1573.03V178.36H1562.57V-32.2844Z" fill="white" fill-opacity="0.5"/>
<path d="M1430.47 -196.842V-82.9898H1445.67V-71.7338H1420.02V-185.586H1224.48V-196.842L1430.47 -196.842Z" fill="white" fill-opacity="0.5"/>
<path d="M1445.61 -41.704H1428.18V-60.464H1445.61V-41.704Z" fill="white" fill-opacity="0.5"/>
<path d="M1551.59 127.45L1551.59 127.451C1549.18 130.811 1536.06 149.088 1537.96 160.82C1540.04 173.658 1548.97 162.401 1549.58 160.82C1550.02 159.978 1549.08 159.952 1548.56 160.044C1546.45 160.459 1542.39 159.593 1542.96 152.805C1543.56 145.678 1549.51 136.208 1551.4 133.199L1551.4 133.197L1551.4 133.195L1551.4 133.191C1551.76 132.622 1551.97 132.286 1551.97 132.244V126.917C1551.95 126.951 1551.82 127.135 1551.59 127.45Z" fill="white" fill-opacity="0.5"/>
<path d="M1548.77 120.792C1551.59 116.105 1552.44 110.561 1552.4 106.839C1552.47 91.9812 1545.02 81.0504 1536.04 73.5482C1527.91 66.755 1518.33 62.5917 1511.27 60.6204V48.1314C1522.78 49.7573 1531.98 54.9108 1538.46 59.861C1541.95 62.5331 1544.64 65.1318 1546.44 67.0527C1547.34 68.0117 1548.02 68.7995 1548.46 69.3391L1548.78 69.7329L1548.96 69.9519L1549.07 70.1003L1549.1 70.136L1553.75 76.4034V-22.4461H1512.28L1517.6 -16.8181H1548.52V61.4137C1546.69 59.5926 1544.34 57.4537 1541.48 55.2727C1535.55 50.7375 1527.42 45.987 1517.37 43.5806C1518.59 42.5629 1519.86 41.3043 1521.13 39.7498C1526.69 32.9081 1531.85 20.6471 1532.26 -1.25673H1536.32V44.687L1541.54 48.7686V-6.88477H1527.06V-4.07074C1527.06 18.729 1521.9 30.2525 1517.19 36.0417C1514.83 38.9464 1512.51 40.4945 1510.85 41.3134C1510.42 41.5223 1510.04 41.6844 1509.71 41.8099C1509.39 41.9308 1509.11 42.0179 1508.89 42.0792C1508.77 42.1143 1508.67 42.1407 1508.58 42.1604C1508.54 42.171 1508.5 42.1797 1508.46 42.1869L1508.42 42.1965C1502.67 42.3449 1494.08 40.762 1486.93 35.6231C1479.86 30.5429 1474.02 21.8792 1473.81 7.29704C1473.82 -10.6542 1486.7 -17.8019 1494.89 -18.0611C1498.91 -18.1884 1503.66 -16.7421 1507.41 -13.2923C1511.1 -9.90396 1513.99 -4.4344 1514.18 3.88029C1514.37 12.1428 1511.69 16.362 1508.8 18.631C1505.76 21.0309 1502.04 21.5943 1499.83 21.5943C1498.06 21.5943 1494.96 20.4951 1492.37 18.0282C1489.89 15.6557 1488.05 12.1868 1488.33 7.49767C1488.63 2.38353 1490.15 0.469971 1491.23 -0.324219C1492.41 -1.19627 1493.74 -1.25398 1494.74 -1.25673L1494.75 -1.25398C1494.79 -1.24574 1494.91 -1.21735 1495.14 -1.13948C1495.48 -1.0204 1495.93 -0.829865 1496.42 -0.567886C1497.28 -0.252136 1499.97 1.54581 1500.32 3.74382C1500.75 6.49135 1499.04 7.15143 1498.3 6.60966C1498.09 6.4521 1497.87 6.18445 1497.63 5.88754C1497.05 5.16347 1496.33 4.26534 1495.14 4.36522C1492.37 4.59743 1491.9 8.27367 1493.38 9.82156C1493.49 9.93735 1493.6 10.054 1493.71 10.1707C1495.06 11.6142 1496.42 13.0664 1499.42 12.9948C1502.65 12.9174 1504.99 10.5955 1505.31 9.2411C1505.64 7.88669 1506.89 1.65813 1502.99 -2.30925C1501.71 -3.77855 1500.11 -4.88142 1498.74 -5.61241C1498.04 -5.98431 1497.35 -6.28477 1496.74 -6.49728C1496.19 -6.68782 1495.48 -6.88477 1494.81 -6.88477H1494.75C1493.67 -6.88568 1490.88 -6.88751 1488.28 -4.97029C1485.49 -2.91656 1483.48 0.863861 1483.11 7.13768C1482.71 13.8374 1485.42 18.914 1488.9 22.2392C1492.29 25.47 1496.58 27.2223 1499.83 27.2223C1502.64 27.2223 1507.61 26.5444 1511.89 23.1735C1516.34 19.6734 1519.63 13.5947 1519.41 3.74382C1519.19 -6.05484 1515.7 -13.0743 1510.81 -17.5729C1505.98 -22.0119 1499.93 -23.8513 1494.73 -23.6873C1484.47 -23.3621 1468.58 -14.4474 1468.58 7.31813V7.33919L1468.58 7.36026C1468.82 23.8486 1475.55 34.218 1484.02 40.304C1491.27 45.5152 1499.66 47.5058 1506.04 47.7952V65.1052L1508.09 65.5889C1514.68 67.1388 1524.62 71.1354 1532.83 77.9945C1541.01 84.8244 1547.24 94.2713 1547.17 106.834V106.861L1547.17 106.889C1547.21 109.819 1546.5 114.207 1544.38 117.735C1542.36 121.098 1539.01 123.799 1533.25 123.699C1529.45 123.633 1526.77 122.674 1524.86 121.388C1522.94 120.101 1521.66 118.388 1520.8 116.575C1519.93 114.742 1519.49 112.82 1519.3 111.205C1519.2 110.402 1519.17 109.698 1519.18 109.149C1519.18 108.874 1519.19 108.647 1519.2 108.474L1519.22 108.266L1519.22 108.208L1519.23 108.187C1519.25 108.039 1519.28 107.885 1519.3 107.727C1519.34 107.454 1519.37 107.166 1519.41 106.865L1519.41 106.857C1519.59 105.325 1519.82 103.455 1520.77 101.513C1521.84 99.3204 1523.91 97.0541 1528.75 96.7473C1530.98 96.6062 1532.1 97.3354 1532.7 98.0892C1532.94 99.0873 1533.09 101.417 1531.74 102.749C1531.22 103.261 1530.5 103.639 1529.75 104.039C1528.05 104.941 1526.14 105.954 1525.78 108.856C1525.27 113.046 1526.98 115.064 1528.44 115.317C1529.91 115.569 1533.66 115.822 1536.66 112.339C1539.66 108.856 1538.96 102.398 1538.82 101.513C1538.8 101.384 1538.78 101.197 1538.75 100.963C1538.61 99.5974 1538.3 96.6444 1536.66 94.4114C1534.8 92.0939 1531.98 90.9049 1528.44 91.1293C1521.75 91.5534 1518.05 94.9839 1516.14 98.8899C1514.66 101.91 1514.29 105.31 1514.15 106.649C1514.12 106.884 1514.1 107.056 1514.09 107.151C1513.92 108.111 1513.87 109.874 1514.11 111.913C1514.36 114.003 1514.93 116.591 1516.15 119.141C1517.37 121.71 1519.25 124.252 1522.08 126.16C1524.92 128.069 1528.56 129.247 1533.17 129.326C1540.87 129.46 1545.85 125.656 1548.77 120.792Z" fill="white" fill-opacity="0.5"/>
<path d="M1277.25 -169.391C1281.6 -172.422 1286.75 -173.341 1290.21 -173.294C1304.01 -173.368 1314.17 -165.348 1321.14 -155.682C1327.45 -146.929 1331.31 -136.622 1333.15 -129.015H1344.75C1343.24 -141.407 1338.45 -151.312 1333.85 -158.286C1331.37 -162.05 1328.95 -164.939 1327.17 -166.878C1326.28 -167.847 1325.55 -168.576 1325.05 -169.057L1324.68 -169.403L1324.48 -169.589L1324.34 -169.712L1324.31 -169.742L1318.48 -174.751H1410.31V-130.105L1405.08 -135.832V-169.123H1332.41C1334.1 -167.153 1336.09 -164.616 1338.11 -161.544C1342.33 -155.156 1346.74 -146.402 1348.98 -135.583C1349.92 -136.9 1351.09 -138.27 1352.53 -139.632C1358.89 -145.624 1370.28 -151.177 1390.63 -151.615V-155.982H1347.95L1344.16 -161.61H1395.86V-146.015H1393.24C1372.06 -146.015 1361.36 -140.468 1355.98 -135.398C1353.28 -132.854 1351.84 -130.358 1351.08 -128.567C1350.89 -128.11 1350.74 -127.697 1350.62 -127.339C1350.51 -126.992 1350.43 -126.696 1350.37 -126.462C1350.34 -126.329 1350.31 -126.217 1350.29 -126.125C1350.28 -126.076 1350.28 -126.034 1350.27 -125.997L1350.26 -125.948C1350.12 -119.76 1351.59 -110.512 1356.37 -102.814C1361.09 -95.2047 1369.14 -88.9244 1382.68 -88.6991C1399.36 -88.7101 1406 -102.568 1406.24 -111.385C1406.36 -115.719 1405.01 -120.827 1401.81 -124.867C1398.66 -128.836 1393.58 -131.951 1385.86 -132.152C1378.18 -132.352 1374.26 -129.468 1372.15 -126.366C1369.92 -123.086 1369.4 -119.085 1369.4 -116.706C1369.4 -114.797 1370.42 -111.46 1372.71 -108.677C1374.92 -106.001 1378.14 -104.023 1382.5 -104.323C1387.25 -104.651 1389.02 -106.288 1389.76 -107.449C1390.57 -108.723 1390.63 -110.155 1390.63 -111.222L1390.63 -111.233C1390.62 -111.276 1390.59 -111.412 1390.52 -111.656C1390.41 -112.026 1390.23 -112.505 1389.99 -113.036C1389.69 -113.956 1388.02 -116.856 1385.98 -117.228C1383.43 -117.692 1382.82 -115.854 1383.32 -115.061C1383.47 -114.83 1383.71 -114.599 1383.99 -114.342C1384.66 -113.715 1385.5 -112.937 1385.41 -111.656C1385.19 -108.677 1381.77 -108.173 1380.34 -109.759C1380.23 -109.878 1380.12 -109.996 1380.01 -110.114C1378.67 -111.572 1377.32 -113.038 1377.39 -116.261C1377.46 -119.743 1379.62 -122.259 1380.88 -122.607C1382.13 -122.955 1387.92 -124.31 1391.61 -120.111C1392.97 -118.734 1393.99 -117.009 1394.67 -115.53C1395.02 -114.778 1395.3 -114.04 1395.5 -113.378C1395.67 -112.786 1395.86 -112.024 1395.86 -111.302V-111.238C1395.86 -110.073 1395.86 -107.076 1394.08 -104.272C1392.17 -101.27 1388.66 -99.1092 1382.83 -98.7066C1376.61 -98.277 1371.89 -101.192 1368.8 -104.943C1365.8 -108.588 1364.17 -113.211 1364.17 -116.706C1364.17 -119.732 1364.8 -125.081 1367.93 -129.689C1371.18 -134.474 1376.98 -137.778 1385.98 -137.778C1395.08 -137.542 1401.61 -133.791 1405.78 -128.521C1409.91 -123.322 1411.62 -116.818 1411.46 -111.219C1411.16 -100.173 1402.88 -83.0711 1382.66 -83.0711H1382.64L1382.62 -83.0715C1367.31 -83.3193 1357.67 -90.5728 1352.02 -99.6895C1347.18 -107.494 1345.33 -116.524 1345.06 -123.387H1328.98L1328.53 -125.6C1327.09 -132.696 1323.38 -143.394 1317.01 -152.231C1310.66 -161.032 1301.89 -167.736 1290.21 -167.666H1290.19L1290.16 -167.667C1287.44 -167.707 1283.37 -166.947 1280.09 -164.666C1276.96 -162.491 1274.45 -158.886 1274.55 -152.685C1274.61 -148.588 1275.5 -145.701 1276.69 -143.645C1277.89 -141.587 1279.48 -140.207 1281.17 -139.277C1282.87 -138.339 1284.65 -137.868 1286.15 -137.664C1286.9 -137.561 1287.55 -137.528 1288.06 -137.53C1288.32 -137.531 1288.53 -137.541 1288.69 -137.554L1288.88 -137.574L1288.94 -137.582L1288.96 -137.585C1289.1 -137.613 1289.24 -137.638 1289.39 -137.662C1289.64 -137.703 1289.91 -137.741 1290.19 -137.78L1290.19 -137.781C1291.62 -137.979 1293.35 -138.221 1295.16 -139.244C1297.19 -140.4 1299.3 -142.631 1299.59 -147.839C1299.72 -150.238 1299.04 -151.44 1298.34 -152.092C1297.41 -152.351 1295.25 -152.506 1294.01 -151.052C1293.53 -150.494 1293.18 -149.726 1292.81 -148.914C1291.97 -147.083 1291.03 -145.027 1288.34 -144.642C1284.44 -144.087 1282.57 -145.933 1282.33 -147.508C1282.1 -149.084 1281.87 -153.121 1285.1 -156.352C1288.34 -159.582 1294.34 -158.825 1295.16 -158.674C1295.28 -158.652 1295.45 -158.631 1295.67 -158.604C1296.94 -158.451 1299.68 -158.119 1301.76 -156.352C1303.91 -154.351 1305.01 -151.317 1304.8 -147.508C1304.41 -140.3 1301.22 -136.323 1297.59 -134.265C1294.79 -132.674 1291.63 -132.276 1290.39 -132.119C1290.17 -132.091 1290.01 -132.071 1289.92 -132.053C1289.03 -131.873 1287.39 -131.822 1285.5 -132.08C1283.55 -132.345 1281.15 -132.962 1278.78 -134.269C1276.4 -135.585 1274.03 -137.61 1272.26 -140.66C1270.49 -143.712 1269.39 -147.635 1269.32 -152.595C1269.2 -160.885 1272.73 -166.245 1277.25 -169.391Z" fill="white" fill-opacity="0.5"/>
<path d="M1276.29 -169.644L1276.29 -169.644C1273.17 -167.048 1256.19 -152.926 1245.29 -154.972C1233.36 -157.21 1243.82 -166.821 1245.29 -167.48C1246.07 -167.954 1246.1 -166.941 1246.01 -166.376C1245.63 -164.111 1246.43 -159.736 1252.74 -160.353C1259.36 -161.001 1268.15 -167.398 1270.95 -169.431L1270.95 -169.432L1270.95 -169.433L1270.96 -169.436C1271.48 -169.82 1271.8 -170.047 1271.84 -170.047H1276.79C1276.75 -170.03 1276.58 -169.888 1276.29 -169.644Z" fill="white" fill-opacity="0.5"/>
<path fill-rule="evenodd" clip-rule="evenodd" d="M1509.57 -91.5923C1511.66 -91.2386 1513.79 -91.0551 1515.97 -91.0551C1518.15 -91.0551 1520.28 -91.2386 1522.37 -91.5923C1539.7 -94.53 1553.4 -109.194 1556.24 -127.801C1556.6 -130.142 1556.79 -132.545 1556.79 -134.994C1556.79 -137.442 1556.6 -139.844 1556.24 -142.186C1553.4 -160.793 1539.7 -175.457 1522.37 -178.394C1520.28 -178.748 1518.15 -178.932 1515.97 -178.932C1513.79 -178.932 1511.66 -178.748 1509.57 -178.394C1492.25 -175.457 1478.55 -160.793 1475.7 -142.186C1475.34 -139.844 1475.15 -137.442 1475.15 -134.994C1475.15 -132.545 1475.34 -130.142 1475.7 -127.801C1478.55 -109.194 1492.25 -94.53 1509.57 -91.5923ZM1514.45 -94.3706C1513.4 -94.4155 1512.36 -94.5063 1511.33 -94.6414V-175.345C1512.36 -175.48 1513.4 -175.571 1514.45 -175.616V-94.3706ZM1517.5 -94.3706V-175.616C1518.55 -175.571 1519.58 -175.48 1520.61 -175.345V-94.6414C1519.58 -94.5063 1518.55 -94.4155 1517.5 -94.3706ZM1523.66 -95.1806V-133.352H1553.71C1553.66 -132.123 1553.57 -130.908 1553.42 -129.709H1526.69V-102.815L1528.62 -103.384L1528.63 -103.386L1528.62 -103.384L1528.63 -103.385L1528.63 -103.386L1528.64 -103.389L1528.68 -103.4C1528.71 -103.409 1528.74 -103.422 1528.79 -103.438C1528.85 -103.456 1528.91 -103.477 1528.99 -103.504C1529.05 -103.526 1529.13 -103.553 1529.21 -103.583C1529.56 -103.712 1530.05 -103.908 1530.66 -104.185C1531.86 -104.738 1533.51 -105.615 1535.3 -106.926C1538.89 -109.55 1543.1 -113.93 1545.5 -120.912L1546.26 -123.123H1532.91V-119.84H1541.77C1539.59 -114.916 1536.39 -111.69 1533.59 -109.643C1532.13 -108.572 1530.77 -107.828 1529.74 -107.337V-126.426H1552.9C1549.78 -110.753 1538.26 -98.4296 1523.66 -95.1806ZM1553.71 -136.635H1523.66V-174.806C1538.26 -171.557 1549.78 -159.234 1552.9 -143.56H1529.74V-162.649C1530.77 -162.158 1532.13 -161.414 1533.59 -160.344C1536.39 -158.296 1539.59 -155.071 1541.77 -150.147H1532.91V-146.864H1546.26L1545.5 -149.075C1543.1 -156.056 1538.89 -160.436 1535.3 -163.06C1533.51 -164.371 1531.86 -165.249 1530.66 -165.802C1530.05 -166.079 1529.56 -166.275 1529.21 -166.404C1529.03 -166.468 1528.89 -166.516 1528.79 -166.549L1528.73 -166.569L1528.68 -166.586L1528.64 -166.597L1528.63 -166.601L1528.63 -166.602L1528.62 -166.602L1528.62 -166.603L1526.69 -167.172V-140.277H1553.42C1553.57 -139.079 1553.66 -137.864 1553.71 -136.635ZM1508.28 -174.806V-136.635H1478.23C1478.28 -137.864 1478.38 -139.079 1478.52 -140.277H1505.25V-167.172L1503.32 -166.603L1503.31 -166.601L1503.32 -166.602L1503.32 -166.602L1503.31 -166.601L1503.3 -166.597L1503.27 -166.586C1503.24 -166.577 1503.2 -166.565 1503.15 -166.549C1503.05 -166.516 1502.91 -166.468 1502.73 -166.404C1502.38 -166.275 1501.89 -166.079 1501.29 -165.802C1500.08 -165.249 1498.43 -164.371 1496.64 -163.06C1493.05 -160.436 1488.84 -156.056 1486.44 -149.075L1485.68 -146.864H1499.03V-150.147H1490.17C1492.35 -155.071 1495.55 -158.296 1498.35 -160.344C1499.82 -161.414 1501.17 -162.158 1502.2 -162.649V-143.56H1479.04C1482.17 -159.234 1493.69 -171.557 1508.28 -174.806ZM1478.23 -133.352H1508.28V-95.1806C1493.69 -98.4296 1482.17 -110.753 1479.04 -126.426H1502.2V-107.337C1501.17 -107.828 1499.82 -108.572 1498.35 -109.643C1495.55 -111.69 1492.35 -114.916 1490.17 -119.84H1499.03V-123.123H1485.68L1486.44 -120.912C1488.84 -113.93 1493.05 -109.55 1496.64 -106.926C1498.43 -105.615 1500.08 -104.738 1501.29 -104.185C1501.89 -103.908 1502.38 -103.712 1502.73 -103.583C1502.91 -103.518 1503.05 -103.471 1503.15 -103.438C1503.2 -103.422 1503.24 -103.409 1503.27 -103.4L1503.3 -103.389L1503.31 -103.386L1503.32 -103.385L1503.32 -103.384L1503.32 -103.384L1505.25 -102.815V-129.709H1478.52C1478.38 -130.908 1478.28 -132.123 1478.23 -133.352Z" fill="white" fill-opacity="0.5"/>
<path d="M11.0328 670.033H116.798L116.797 709.482H116.8V720.738H116.797V834.589H0.57605V709.481L95.2001 709.479V720.735L11.0323 720.737V823.333H106.341V720.735H106.338V709.479H106.341L106.341 681.289H0.576289V459.388H11.0328V670.033Z" fill="white" fill-opacity="0.5"/>
<path d="M143.131 834.59V720.738H127.938V709.482H153.587V823.334H349.126V834.59L143.131 834.59Z" fill="white" fill-opacity="0.5"/>
<path d="M127.994 679.452H145.422V698.212H127.994V679.452Z" fill="white" fill-opacity="0.5"/>
<path d="M22.0123 510.298L22.0131 510.297C24.4244 506.937 37.5433 488.66 35.6429 476.928C33.5636 464.09 24.6348 475.347 24.0233 476.928C23.5829 477.77 24.5235 477.797 25.0489 477.704C27.1528 477.289 31.2172 478.155 30.6439 484.943C30.0421 492.07 24.099 501.54 22.2108 504.549L22.2097 504.551L22.2085 504.553L22.2058 504.557C21.849 505.126 21.6382 505.462 21.6382 505.504V510.831C21.654 510.797 21.7858 510.614 22.0123 510.298Z" fill="white" fill-opacity="0.5"/>
<path d="M24.8327 516.956C22.0173 521.643 21.1638 527.187 21.2068 530.909C21.1387 545.767 28.5888 556.698 37.568 564.2C45.6993 570.993 55.2738 575.156 62.3405 577.128V589.617C50.8293 587.991 41.6275 582.837 35.1492 577.887C31.6526 575.215 28.9687 572.616 27.1673 570.695C26.2674 569.736 25.5896 568.949 25.1433 568.409L24.822 568.015L24.6489 567.796L24.5344 567.648L24.5072 567.612L19.8533 561.345V660.194H61.3283L56.0078 654.566H25.0816V576.334C26.9116 578.155 29.2683 580.294 32.1224 582.475C38.0565 587.011 46.1886 591.761 56.2392 594.167C55.0164 595.185 53.7429 596.444 52.478 597.998C46.9119 604.84 41.7534 617.101 41.3463 639.005H37.2893V593.061L32.0611 588.979V644.633H46.5485V641.819C46.5485 619.019 51.7015 607.496 56.4111 601.706C58.7746 598.802 61.0935 597.254 62.7575 596.435C63.1817 596.226 63.565 596.064 63.8978 595.938C64.2203 595.817 64.4951 595.73 64.713 595.669C64.8358 595.634 64.9406 595.607 65.0254 595.588C65.0708 595.577 65.1105 595.568 65.1442 595.561L65.1899 595.552C70.9381 595.403 79.5298 596.986 86.6803 602.125C93.7496 607.205 99.5837 615.869 99.7931 630.451C99.7828 648.402 86.9092 655.55 78.7188 655.809C74.6925 655.937 69.9476 654.49 66.1941 651.04C62.5069 647.652 59.6132 642.182 59.4264 633.868C59.2405 625.605 61.9197 621.386 64.8019 619.117C67.8487 616.717 71.5653 616.154 73.7752 616.154C75.549 616.154 78.649 617.253 81.2342 619.72C83.7203 622.092 85.5579 625.561 85.2788 630.25C84.9741 635.365 83.4535 637.278 82.3749 638.072C81.1912 638.944 79.8616 639.002 78.8703 639.005L78.8596 639.002C78.8196 638.994 78.6937 638.965 78.4669 638.888C78.1236 638.768 77.6781 638.578 77.185 638.316C76.3302 638 73.6357 636.202 73.2906 634.004C72.8593 631.257 74.5668 630.597 75.3038 631.138C75.5181 631.296 75.7333 631.564 75.972 631.861C76.5542 632.585 77.2764 633.483 78.4669 633.383C81.2342 633.151 81.7027 629.474 80.2288 627.927C80.1185 627.811 80.0091 627.694 79.8996 627.577C78.5452 626.134 77.1827 624.682 74.1894 624.753C70.954 624.831 68.6173 627.153 68.2938 628.507C67.9702 629.861 66.7115 636.09 70.6122 640.057C71.8912 641.527 73.4939 642.629 74.8682 643.36C75.5669 643.732 76.2519 644.033 76.8676 644.245C77.4173 644.436 78.1253 644.633 78.7958 644.633H78.8554C79.9378 644.634 82.7217 644.636 85.3264 642.718C88.115 640.665 90.1224 636.884 90.4964 630.61C90.8955 623.911 88.1873 618.834 84.7027 615.509C81.3172 612.278 77.022 610.526 73.7752 610.526C70.9641 610.526 65.9958 611.204 61.7151 614.575C57.2701 618.075 53.9782 624.153 54.1999 634.004C54.4199 643.803 57.9041 650.822 62.7996 655.321C67.6292 659.76 73.6718 661.599 78.8728 661.435C89.134 661.11 105.021 652.195 105.021 630.43V630.409L105.021 630.388C104.791 613.899 98.0524 603.53 89.5833 597.444C82.3328 592.233 73.945 590.242 67.5688 589.953V572.643L65.5129 572.159C58.9214 570.609 48.9831 566.613 40.7736 559.754C32.5985 552.924 26.3699 543.477 26.435 530.914V530.887L26.4346 530.86C26.3976 527.929 27.103 523.542 29.2227 520.013C31.2429 516.65 34.5918 513.949 40.3519 514.049C44.1578 514.115 46.8404 515.074 48.75 516.36C50.6616 517.647 51.944 519.36 52.8077 521.174C53.6795 523.006 54.1165 524.928 54.3067 526.543C54.4016 527.346 54.4326 528.05 54.4305 528.599C54.4296 528.874 54.4203 529.101 54.4084 529.274L54.3897 529.482L54.3824 529.541L54.3794 529.561C54.3535 529.709 54.3301 529.863 54.308 530.021C54.2696 530.294 54.2349 530.582 54.1987 530.883L54.1978 530.891C54.0136 532.423 53.7887 534.293 52.8384 536.235C51.7649 538.428 49.692 540.694 44.8543 541.001C42.6252 541.142 41.5084 540.413 40.9033 539.659C40.6626 538.661 40.5187 536.332 41.869 534.999C42.3877 534.487 43.1011 534.109 43.8557 533.709C45.5567 532.807 47.4665 531.794 47.8238 528.892C48.3395 524.703 46.6245 522.684 45.1611 522.431C43.6976 522.179 39.947 521.927 36.946 525.409C33.9449 528.892 34.6483 535.351 34.7889 536.235C34.8095 536.364 34.8291 536.551 34.8535 536.785C34.9962 538.151 35.3047 541.104 36.946 543.337C38.8049 545.654 41.6228 546.843 45.1611 546.619C51.8572 546.195 55.5516 542.764 57.4637 538.858C58.942 535.839 59.3119 532.438 59.4575 531.099C59.483 530.864 59.5017 530.692 59.5183 530.598C59.6856 529.637 59.7336 527.874 59.4937 525.835C59.2473 523.745 58.6746 521.157 57.4603 518.607C56.2375 516.038 54.3565 513.496 51.5228 511.588C48.6874 509.679 45.0432 508.501 40.4362 508.422C32.735 508.288 27.7553 512.092 24.8327 516.956Z" fill="white" fill-opacity="0.5"/>
<path d="M296.357 807.139C292.004 810.17 286.853 811.089 283.396 811.042C269.593 811.116 259.439 803.096 252.47 793.43C246.159 784.677 242.291 774.371 240.46 766.763H228.858C230.369 779.155 235.156 789.06 239.755 796.034C242.237 799.798 244.651 802.687 246.435 804.626C247.326 805.595 248.058 806.325 248.559 806.805L248.925 807.151L249.129 807.337L249.267 807.46L249.3 807.49L255.122 812.499H163.294V767.853L168.522 773.58V806.871H241.197C239.505 804.902 237.518 802.365 235.492 799.292C231.279 792.904 226.866 784.15 224.631 773.331C223.685 774.648 222.516 776.018 221.072 777.38C214.716 783.372 203.326 788.925 182.978 789.363V793.73H225.658L229.45 799.358H177.75V783.763H180.364C201.544 783.763 212.249 778.216 217.627 773.146C220.326 770.602 221.764 768.106 222.524 766.315C222.719 765.858 222.869 765.445 222.986 765.087C223.098 764.74 223.179 764.444 223.236 764.21C223.268 764.077 223.293 763.965 223.311 763.873C223.321 763.824 223.329 763.782 223.336 763.745L223.345 763.696C223.483 757.508 222.012 748.26 217.238 740.563C212.519 732.953 204.471 726.673 190.924 726.447C174.248 726.458 167.608 740.316 167.367 749.133C167.249 753.467 168.593 758.575 171.798 762.615C174.945 766.584 180.026 769.699 187.75 769.9C195.426 770.101 199.345 767.216 201.453 764.114C203.683 760.834 204.206 756.833 204.206 754.454C204.206 752.545 203.185 749.208 200.893 746.425C198.689 743.749 195.467 741.771 191.111 742.071C186.36 742.399 184.582 744.036 183.844 745.197C183.034 746.471 182.981 747.903 182.978 748.97L182.981 748.981C182.988 749.024 183.015 749.16 183.087 749.404C183.198 749.774 183.375 750.253 183.618 750.784C183.911 751.704 185.582 754.605 187.624 754.976C190.176 755.44 190.789 753.602 190.286 752.809C190.139 752.578 189.891 752.347 189.615 752.09C188.942 751.463 188.108 750.686 188.201 749.404C188.416 746.425 191.832 745.921 193.27 747.507C193.377 747.626 193.485 747.744 193.594 747.862C194.935 749.32 196.284 750.786 196.217 754.009C196.145 757.491 193.989 760.007 192.73 760.355C191.472 760.703 185.686 762.058 182 757.859C180.636 756.483 179.611 754.757 178.932 753.278C178.586 752.526 178.307 751.788 178.11 751.126C177.933 750.534 177.75 749.772 177.75 749.05V748.986C177.749 747.821 177.747 744.824 179.528 742.02C181.436 739.018 184.948 736.857 190.776 736.455C197 736.025 201.716 738.94 204.805 742.691C207.806 746.336 209.434 750.959 209.434 754.454C209.434 757.481 208.805 762.829 205.673 767.437C202.422 772.222 196.626 775.527 187.624 775.527C178.521 775.29 172 771.539 167.821 766.269C163.697 761.07 161.989 754.566 162.141 748.967C162.443 737.921 170.724 720.819 190.944 720.819H190.964L190.983 720.82C206.3 721.067 215.933 728.321 221.587 737.438C226.428 745.243 228.277 754.272 228.546 761.135H244.626L245.076 763.349C246.515 770.444 250.228 781.142 256.6 789.98C262.945 798.78 271.721 805.485 283.391 805.414H283.416L283.442 805.415C286.164 805.455 290.24 804.695 293.518 802.414C296.642 800.239 299.151 796.634 299.058 790.433C298.997 786.337 298.106 783.449 296.911 781.393C295.716 779.335 294.124 777.955 292.44 777.025C290.738 776.087 288.952 775.616 287.451 775.412C286.706 775.31 286.051 775.276 285.542 775.278C285.286 775.279 285.075 775.289 284.915 775.302L284.721 775.322L284.667 775.33L284.648 775.333C284.51 775.361 284.367 775.386 284.22 775.41C283.967 775.452 283.7 775.489 283.42 775.528L283.412 775.529C281.989 775.727 280.252 775.969 278.448 776.992C276.411 778.148 274.306 780.379 274.021 785.587C273.89 787.986 274.567 789.189 275.267 789.84C276.195 790.099 278.358 790.254 279.596 788.8C280.072 788.242 280.423 787.474 280.795 786.662C281.633 784.831 282.574 782.775 285.27 782.39C289.161 781.835 291.037 783.681 291.271 785.257C291.506 786.832 291.74 790.869 288.505 794.1C285.27 797.33 279.27 796.573 278.448 796.422C278.328 796.4 278.154 796.379 277.937 796.352C276.668 796.199 273.925 795.867 271.851 794.1C269.698 792.099 268.593 789.065 268.802 785.257C269.196 778.048 272.383 774.072 276.011 772.013C278.816 770.422 281.975 770.024 283.219 769.867C283.438 769.84 283.597 769.819 283.685 769.801C284.578 769.621 286.215 769.57 288.109 769.828C290.051 770.093 292.455 770.71 294.824 772.017C297.21 773.333 299.571 775.358 301.344 778.408C303.117 781.461 304.212 785.383 304.286 790.343C304.41 798.633 300.876 803.993 296.357 807.139Z" fill="white" fill-opacity="0.5"/>
<path d="M297.316 807.393L297.317 807.392C300.438 804.796 317.417 790.674 328.316 792.72C340.241 794.958 329.784 804.569 328.316 805.228C327.533 805.702 327.509 804.689 327.595 804.124C327.981 801.859 327.176 797.484 320.87 798.101C314.249 798.749 305.452 805.146 302.657 807.179L302.655 807.18L302.653 807.181L302.65 807.184C302.121 807.568 301.809 807.795 301.769 807.795H296.821C296.852 807.778 297.023 807.636 297.316 807.393Z" fill="white" fill-opacity="0.5"/>
<path fill-rule="evenodd" clip-rule="evenodd" d="M64.0346 729.34C61.9487 728.987 59.8111 728.803 57.6348 728.803C55.4584 728.803 53.3212 728.987 51.2353 729.34C33.9103 732.278 20.2093 746.942 17.3622 765.549C17.0039 767.891 16.8177 770.293 16.8177 772.742C16.8177 775.19 17.0039 777.592 17.3622 779.934C20.2093 798.541 33.9103 813.205 51.2353 816.143C53.3212 816.496 55.4584 816.68 57.6348 816.68C59.8111 816.68 61.9487 816.496 64.0346 816.143C81.3595 813.205 95.0606 798.541 97.9077 779.934C98.266 777.592 98.4521 775.19 98.4521 772.742C98.4521 770.293 98.266 767.891 97.9077 765.549C95.0606 746.942 81.3595 732.278 64.0346 729.34ZM59.1597 732.119C60.2091 732.164 61.2472 732.254 62.2724 732.389V813.093C61.2472 813.228 60.2091 813.319 59.1597 813.364V732.119ZM56.1099 732.119V813.364C55.0606 813.319 54.0226 813.228 52.9975 813.093V732.389C54.0226 732.254 55.0606 732.164 56.1099 732.119ZM49.9477 732.929V771.1H19.8978C19.9431 769.871 20.0391 768.656 20.1835 767.457H46.9113V740.563L44.9832 741.132L44.9759 741.134L44.9818 741.132L44.9801 741.133L44.9759 741.134L44.9645 741.138L44.9294 741.148C44.9007 741.157 44.8613 741.17 44.8118 741.186C44.7589 741.204 44.6946 741.225 44.6193 741.252C44.5537 741.275 44.4798 741.301 44.3981 741.331C44.0476 741.46 43.5526 741.656 42.9492 741.933C41.7437 742.486 40.0972 743.363 38.3033 744.674C34.7126 747.299 30.5069 751.678 28.107 758.66L27.3468 760.871H40.6959V757.588H31.8342C34.0156 752.664 37.214 749.439 40.0164 747.391C41.4806 746.321 42.8316 745.576 43.8615 745.086V764.174H20.7073C23.8299 748.501 35.3493 736.178 49.9477 732.929ZM19.8978 774.383H49.9477V812.554C35.3493 809.305 23.8299 796.982 20.7073 781.309H43.8615V800.397C42.8316 799.907 41.4806 799.162 40.0164 798.092C37.214 796.044 34.0156 792.819 31.8342 787.895H40.6959V784.612H27.3468L28.107 786.823C30.5069 793.804 34.7126 798.184 38.3033 800.808C40.0972 802.119 41.7437 802.997 42.9492 803.55C43.5526 803.827 44.0476 804.023 44.3981 804.152C44.5735 804.216 44.7129 804.264 44.8118 804.297L44.8736 804.317L44.9294 804.334L44.9645 804.345L44.9759 804.349L44.9801 804.35L44.9818 804.35L44.9832 804.351L46.9113 804.92V778.025H20.1835C20.0391 776.827 19.9431 775.612 19.8978 774.383ZM65.3222 812.554V774.383H95.3721C95.3268 775.612 95.2308 776.827 95.0864 778.025H68.3585V804.92L70.2867 804.351L70.294 804.349L70.2881 804.35L70.2898 804.35L70.294 804.349L70.3054 804.345L70.3405 804.334C70.3692 804.326 70.4086 804.313 70.4581 804.297C70.5571 804.264 70.6964 804.216 70.8717 804.152C71.2223 804.023 71.7173 803.827 72.3207 803.55C73.5262 802.997 75.1727 802.119 76.9666 800.808C80.5573 798.184 84.763 793.804 87.163 786.823L87.923 784.612H74.5739V787.895H83.4357C81.2543 792.819 78.0558 796.044 75.2535 798.092C73.7893 799.162 72.4382 799.907 71.4083 800.397V781.309H94.5626C91.44 796.982 79.9206 809.305 65.3222 812.554ZM95.3721 771.1H65.3222V732.929C79.9206 736.178 91.44 748.501 94.5626 764.174H71.4083V745.086C72.4382 745.576 73.7893 746.321 75.2535 747.391C78.0558 749.439 81.2543 752.664 83.4357 757.588H74.5739V760.871H87.923L87.163 758.66C84.763 751.678 80.5573 747.299 76.9666 744.674C75.1727 743.363 73.5262 742.486 72.3207 741.933C71.7173 741.656 71.2223 741.46 70.8717 741.331C70.6964 741.267 70.5571 741.219 70.4581 741.186C70.4086 741.17 70.3692 741.157 70.3405 741.148L70.3054 741.138L70.294 741.134L70.2898 741.133L70.2881 741.132L70.2867 741.132L68.3585 740.563V767.457H95.0864C95.2308 768.656 95.3268 769.871 95.3721 771.1Z" fill="white" fill-opacity="0.5"/>
<path d="M11.0328 -32.2844H116.798L116.797 -71.7338H116.8V-82.9898H116.797V-196.841H0.57605V-71.733L95.2001 -71.7312V-82.9873L11.0323 -82.989V-185.585H106.341V-82.9871H106.338V-71.731H106.341L106.341 -43.5405H0.576289V178.36H11.0328V-32.2844Z" fill="white" fill-opacity="0.5"/>
<path d="M143.131 -196.842V-82.9898H127.938V-71.7338H153.587V-185.586H349.126V-196.842L143.131 -196.842Z" fill="white" fill-opacity="0.5"/>
<path d="M127.994 -41.704H145.422V-60.464H127.994V-41.704Z" fill="white" fill-opacity="0.5"/>
<path d="M22.0123 127.45L22.0131 127.451C24.4244 130.811 37.5433 149.088 35.6429 160.82C33.5636 173.658 24.6348 162.401 24.0233 160.82C23.5829 159.978 24.5235 159.952 25.0489 160.044C27.1528 160.459 31.2172 159.593 30.6439 152.805C30.0421 145.678 24.099 136.208 22.2108 133.199L22.2097 133.197L22.2085 133.195L22.2058 133.191C21.849 132.622 21.6382 132.286 21.6382 132.244V126.917C21.654 126.951 21.7858 127.135 22.0123 127.45Z" fill="white" fill-opacity="0.5"/>
<path d="M24.8327 120.792C22.0173 116.105 21.1638 110.561 21.2068 106.839C21.1387 91.9812 28.5888 81.0504 37.568 73.5482C45.6993 66.755 55.2738 62.5917 62.3405 60.6204V48.1314C50.8293 49.7573 41.6275 54.9108 35.1492 59.861C31.6526 62.5331 28.9687 65.1318 27.1673 67.0527C26.2674 68.0117 25.5896 68.7995 25.1433 69.3391L24.822 69.7329L24.6489 69.9519L24.5344 70.1003L24.5072 70.136L19.8533 76.4034V-22.4461H61.3283L56.0078 -16.8181H25.0816V61.4137C26.9116 59.5926 29.2683 57.4537 32.1224 55.2727C38.0565 50.7375 46.1886 45.987 56.2392 43.5806C55.0164 42.5629 53.7429 41.3043 52.478 39.7498C46.9119 32.9081 41.7534 20.6471 41.3463 -1.25673H37.2893V44.687L32.0611 48.7686V-6.88477H46.5485V-4.07074C46.5485 18.729 51.7015 30.2525 56.4111 36.0417C58.7746 38.9464 61.0935 40.4945 62.7575 41.3134C63.1817 41.5223 63.565 41.6844 63.8978 41.8099C64.2203 41.9308 64.4951 42.0179 64.713 42.0792C64.8358 42.1143 64.9406 42.1407 65.0254 42.1604C65.0708 42.171 65.1105 42.1797 65.1442 42.1869L65.1899 42.1965C70.9381 42.3449 79.5298 40.762 86.6803 35.6231C93.7496 30.5429 99.5837 21.8792 99.7931 7.29704C99.7828 -10.6542 86.9092 -17.8019 78.7188 -18.0611C74.6925 -18.1884 69.9476 -16.7421 66.1941 -13.2923C62.5069 -9.90396 59.6132 -4.4344 59.4264 3.88029C59.2405 12.1428 61.9197 16.362 64.8019 18.631C67.8487 21.0309 71.5653 21.5943 73.7752 21.5943C75.549 21.5943 78.649 20.4951 81.2342 18.0282C83.7203 15.6557 85.5579 12.1868 85.2788 7.49767C84.9741 2.38353 83.4535 0.469971 82.3749 -0.324219C81.1912 -1.19627 79.8616 -1.25398 78.8703 -1.25673L78.8596 -1.25398C78.8196 -1.24574 78.6937 -1.21735 78.4669 -1.13948C78.1236 -1.0204 77.6781 -0.829865 77.185 -0.567886C76.3302 -0.252136 73.6357 1.54581 73.2906 3.74382C72.8593 6.49135 74.5668 7.15143 75.3038 6.60966C75.5181 6.4521 75.7333 6.18445 75.972 5.88754C76.5542 5.16347 77.2764 4.26534 78.4669 4.36522C81.2342 4.59743 81.7027 8.27367 80.2288 9.82156C80.1185 9.93735 80.0091 10.054 79.8996 10.1707C78.5452 11.6142 77.1827 13.0664 74.1894 12.9948C70.954 12.9174 68.6173 10.5955 68.2938 9.2411C67.9702 7.88669 66.7115 1.65813 70.6122 -2.30925C71.8912 -3.77855 73.4939 -4.88142 74.8682 -5.61241C75.5669 -5.98431 76.2519 -6.28477 76.8676 -6.49728C77.4173 -6.68782 78.1253 -6.88477 78.7958 -6.88477H78.8554C79.9378 -6.88568 82.7217 -6.88751 85.3264 -4.97029C88.115 -2.91656 90.1224 0.863861 90.4964 7.13768C90.8955 13.8374 88.1873 18.914 84.7027 22.2392C81.3172 25.47 77.022 27.2223 73.7752 27.2223C70.9641 27.2223 65.9958 26.5444 61.7151 23.1735C57.2701 19.6734 53.9782 13.5947 54.1999 3.74382C54.4199 -6.05484 57.9041 -13.0743 62.7996 -17.5729C67.6292 -22.0119 73.6718 -23.8513 78.8728 -23.6873C89.134 -23.3621 105.021 -14.4474 105.021 7.31813V7.33919L105.021 7.36026C104.791 23.8486 98.0524 34.218 89.5833 40.304C82.3328 45.5152 73.945 47.5058 67.5688 47.7952V65.1052L65.5129 65.5889C58.9214 67.1388 48.9831 71.1354 40.7736 77.9945C32.5985 84.8244 26.3699 94.2713 26.435 106.834V106.861L26.4346 106.889C26.3976 109.819 27.103 114.207 29.2227 117.735C31.2429 121.098 34.5918 123.799 40.3519 123.699C44.1578 123.633 46.8404 122.674 48.75 121.388C50.6616 120.101 51.944 118.388 52.8077 116.575C53.6795 114.742 54.1165 112.82 54.3067 111.205C54.4016 110.402 54.4326 109.698 54.4305 109.149C54.4296 108.874 54.4203 108.647 54.4084 108.474L54.3897 108.266L54.3824 108.208L54.3794 108.187C54.3535 108.039 54.3301 107.885 54.308 107.727C54.2696 107.454 54.2349 107.166 54.1987 106.865L54.1978 106.857C54.0136 105.325 53.7887 103.455 52.8384 101.513C51.7649 99.3204 49.692 97.0541 44.8543 96.7473C42.6252 96.6062 41.5084 97.3354 40.9033 98.0892C40.6626 99.0873 40.5187 101.417 41.869 102.749C42.3877 103.261 43.1011 103.639 43.8557 104.039C45.5567 104.941 47.4665 105.954 47.8238 108.856C48.3395 113.046 46.6245 115.064 45.1611 115.317C43.6976 115.569 39.947 115.822 36.946 112.339C33.9449 108.856 34.6483 102.398 34.7889 101.513C34.8095 101.384 34.8291 101.197 34.8535 100.963C34.9962 99.5974 35.3047 96.6444 36.946 94.4114C38.8049 92.0939 41.6228 90.9049 45.1611 91.1293C51.8572 91.5534 55.5516 94.9839 57.4637 98.8899C58.942 101.91 59.3119 105.31 59.4575 106.649C59.483 106.884 59.5017 107.056 59.5183 107.151C59.6856 108.111 59.7336 109.874 59.4937 111.913C59.2473 114.003 58.6746 116.591 57.4603 119.141C56.2375 121.71 54.3565 124.252 51.5228 126.16C48.6874 128.069 45.0432 129.247 40.4362 129.326C32.735 129.46 27.7553 125.656 24.8327 120.792Z" fill="white" fill-opacity="0.5"/>
<path d="M296.357 -169.391C292.004 -172.422 286.853 -173.341 283.396 -173.294C269.593 -173.368 259.439 -165.348 252.47 -155.682C246.159 -146.929 242.291 -136.622 240.46 -129.015H228.858C230.369 -141.407 235.156 -151.312 239.755 -158.286C242.237 -162.05 244.651 -164.939 246.435 -166.878C247.326 -167.847 248.058 -168.576 248.559 -169.057L248.925 -169.403L249.129 -169.589L249.267 -169.712L249.3 -169.742L255.122 -174.751H163.294V-130.105L168.522 -135.832V-169.123H241.197C239.505 -167.153 237.518 -164.616 235.492 -161.544C231.279 -155.156 226.866 -146.402 224.631 -135.583C223.685 -136.9 222.516 -138.27 221.072 -139.632C214.716 -145.624 203.326 -151.177 182.978 -151.615V-155.982H225.658L229.45 -161.61H177.75V-146.015H180.364C201.544 -146.015 212.249 -140.468 217.627 -135.398C220.326 -132.854 221.764 -130.358 222.524 -128.567C222.719 -128.11 222.869 -127.697 222.986 -127.339C223.098 -126.992 223.179 -126.696 223.236 -126.462C223.268 -126.329 223.293 -126.217 223.311 -126.125C223.321 -126.076 223.329 -126.034 223.336 -125.997L223.345 -125.948C223.483 -119.76 222.012 -110.512 217.238 -102.814C212.519 -95.2047 204.471 -88.9244 190.924 -88.6991C174.248 -88.7101 167.608 -102.568 167.367 -111.385C167.249 -115.719 168.593 -120.827 171.798 -124.867C174.945 -128.836 180.026 -131.951 187.75 -132.152C195.426 -132.352 199.345 -129.468 201.453 -126.366C203.683 -123.086 204.206 -119.085 204.206 -116.706C204.206 -114.797 203.185 -111.46 200.893 -108.677C198.689 -106.001 195.467 -104.023 191.111 -104.323C186.36 -104.651 184.582 -106.288 183.844 -107.449C183.034 -108.723 182.981 -110.155 182.978 -111.222L182.981 -111.233C182.988 -111.276 183.015 -111.412 183.087 -111.656C183.198 -112.026 183.375 -112.505 183.618 -113.036C183.911 -113.956 185.582 -116.856 187.624 -117.228C190.176 -117.692 190.789 -115.854 190.286 -115.061C190.139 -114.83 189.891 -114.599 189.615 -114.342C188.942 -113.715 188.108 -112.937 188.201 -111.656C188.416 -108.677 191.832 -108.173 193.27 -109.759C193.377 -109.878 193.485 -109.996 193.594 -110.114C194.935 -111.572 196.284 -113.038 196.217 -116.261C196.145 -119.743 193.989 -122.259 192.73 -122.607C191.472 -122.955 185.686 -124.31 182 -120.111C180.636 -118.734 179.611 -117.009 178.932 -115.53C178.586 -114.778 178.307 -114.04 178.11 -113.378C177.933 -112.786 177.75 -112.024 177.75 -111.302V-111.238C177.749 -110.073 177.747 -107.076 179.528 -104.272C181.436 -101.27 184.948 -99.1092 190.776 -98.7066C197 -98.277 201.716 -101.192 204.805 -104.943C207.806 -108.588 209.434 -113.211 209.434 -116.706C209.434 -119.732 208.805 -125.081 205.673 -129.689C202.422 -134.474 196.626 -137.778 187.624 -137.778C178.521 -137.542 172 -133.791 167.821 -128.521C163.697 -123.322 161.989 -116.818 162.141 -111.219C162.443 -100.173 170.724 -83.0711 190.944 -83.0711H190.964L190.983 -83.0715C206.3 -83.3193 215.933 -90.5728 221.587 -99.6895C226.428 -107.494 228.277 -116.524 228.546 -123.387H244.626L245.076 -125.6C246.515 -132.696 250.228 -143.394 256.6 -152.231C262.945 -161.032 271.721 -167.736 283.391 -167.666H283.416L283.442 -167.667C286.164 -167.707 290.24 -166.947 293.518 -164.666C296.642 -162.491 299.151 -158.886 299.058 -152.685C298.997 -148.588 298.106 -145.701 296.911 -143.645C295.716 -141.587 294.124 -140.207 292.44 -139.277C290.738 -138.339 288.952 -137.868 287.451 -137.664C286.706 -137.561 286.051 -137.528 285.542 -137.53C285.286 -137.531 285.075 -137.541 284.915 -137.554L284.721 -137.574L284.667 -137.582L284.648 -137.585C284.51 -137.613 284.367 -137.638 284.22 -137.662C283.967 -137.703 283.7 -137.741 283.42 -137.78L283.412 -137.781C281.989 -137.979 280.252 -138.221 278.448 -139.244C276.411 -140.4 274.306 -142.631 274.021 -147.839C273.89 -150.238 274.567 -151.44 275.267 -152.092C276.195 -152.351 278.358 -152.506 279.596 -151.052C280.072 -150.494 280.423 -149.726 280.795 -148.914C281.633 -147.083 282.574 -145.027 285.27 -144.642C289.161 -144.087 291.037 -145.933 291.271 -147.508C291.506 -149.084 291.74 -153.121 288.505 -156.352C285.27 -159.582 279.27 -158.825 278.448 -158.674C278.328 -158.652 278.154 -158.631 277.937 -158.604C276.668 -158.451 273.925 -158.119 271.851 -156.352C269.698 -154.351 268.593 -151.317 268.802 -147.508C269.196 -140.3 272.383 -136.323 276.011 -134.265C278.816 -132.674 281.975 -132.276 283.219 -132.119C283.438 -132.091 283.597 -132.071 283.685 -132.053C284.578 -131.873 286.215 -131.822 288.109 -132.08C290.051 -132.345 292.455 -132.962 294.824 -134.269C297.21 -135.585 299.571 -137.61 301.344 -140.66C303.117 -143.712 304.212 -147.635 304.286 -152.595C304.41 -160.885 300.876 -166.245 296.357 -169.391Z" fill="white" fill-opacity="0.5"/>
<path d="M297.316 -169.644L297.317 -169.644C300.438 -167.048 317.417 -152.926 328.316 -154.972C340.241 -157.21 329.784 -166.821 328.316 -167.48C327.533 -167.954 327.509 -166.941 327.595 -166.376C327.981 -164.111 327.176 -159.736 320.87 -160.353C314.249 -161.001 305.452 -167.398 302.657 -169.431L302.655 -169.432L302.653 -169.433L302.65 -169.436C302.121 -169.82 301.809 -170.047 301.769 -170.047H296.821C296.852 -170.03 297.023 -169.888 297.316 -169.644Z" fill="white" fill-opacity="0.5"/>
<path fill-rule="evenodd" clip-rule="evenodd" d="M64.0346 -91.5923C61.9487 -91.2386 59.8111 -91.0551 57.6348 -91.0551C55.4584 -91.0551 53.3212 -91.2386 51.2353 -91.5923C33.9103 -94.53 20.2093 -109.194 17.3622 -127.801C17.0039 -130.142 16.8177 -132.545 16.8177 -134.994C16.8177 -137.442 17.0039 -139.844 17.3622 -142.186C20.2093 -160.793 33.9103 -175.457 51.2353 -178.394C53.3212 -178.748 55.4584 -178.932 57.6348 -178.932C59.8111 -178.932 61.9487 -178.748 64.0346 -178.394C81.3595 -175.457 95.0606 -160.793 97.9077 -142.186C98.266 -139.844 98.4521 -137.442 98.4521 -134.994C98.4521 -132.545 98.266 -130.142 97.9077 -127.801C95.0606 -109.194 81.3595 -94.53 64.0346 -91.5923ZM59.1597 -94.3706C60.2091 -94.4155 61.2472 -94.5063 62.2724 -94.6414V-175.345C61.2472 -175.48 60.2091 -175.571 59.1597 -175.616V-94.3706ZM56.1099 -94.3706V-175.616C55.0606 -175.571 54.0226 -175.48 52.9975 -175.345V-94.6414C54.0226 -94.5063 55.0606 -94.4155 56.1099 -94.3706ZM49.9477 -95.1806V-133.352H19.8978C19.9431 -132.123 20.0391 -130.908 20.1835 -129.709H46.9113V-102.815L44.9832 -103.384L44.9759 -103.386L44.9818 -103.384L44.9801 -103.385L44.9759 -103.386L44.9645 -103.389L44.9294 -103.4C44.9007 -103.409 44.8613 -103.422 44.8118 -103.438C44.7589 -103.456 44.6946 -103.477 44.6193 -103.504C44.5537 -103.526 44.4798 -103.553 44.3981 -103.583C44.0476 -103.712 43.5526 -103.908 42.9492 -104.185C41.7437 -104.738 40.0972 -105.615 38.3033 -106.926C34.7126 -109.55 30.5069 -113.93 28.107 -120.912L27.3468 -123.123H40.6959V-119.84H31.8342C34.0156 -114.916 37.214 -111.69 40.0164 -109.643C41.4806 -108.572 42.8316 -107.828 43.8615 -107.337V-126.426H20.7073C23.8299 -110.753 35.3493 -98.4296 49.9477 -95.1806ZM19.8978 -136.635H49.9477V-174.806C35.3493 -171.557 23.8299 -159.234 20.7073 -143.56H43.8615V-162.649C42.8316 -162.158 41.4806 -161.414 40.0164 -160.344C37.214 -158.296 34.0156 -155.071 31.8342 -150.147H40.6959V-146.864H27.3468L28.107 -149.075C30.5069 -156.056 34.7126 -160.436 38.3033 -163.06C40.0972 -164.371 41.7437 -165.249 42.9492 -165.802C43.5526 -166.079 44.0476 -166.275 44.3981 -166.404C44.5735 -166.468 44.7129 -166.516 44.8118 -166.549L44.8736 -166.569L44.9294 -166.586L44.9645 -166.597L44.9759 -166.601L44.9801 -166.602L44.9818 -166.602L44.9832 -166.603L46.9113 -167.172V-140.277H20.1835C20.0391 -139.079 19.9431 -137.864 19.8978 -136.635ZM65.3222 -174.806V-136.635H95.3721C95.3268 -137.864 95.2308 -139.079 95.0864 -140.277H68.3585V-167.172L70.2867 -166.603L70.294 -166.601L70.2881 -166.602L70.2898 -166.602L70.294 -166.601L70.3054 -166.597L70.3405 -166.586C70.3692 -166.577 70.4086 -166.565 70.4581 -166.549C70.5571 -166.516 70.6964 -166.468 70.8717 -166.404C71.2223 -166.275 71.7173 -166.079 72.3207 -165.802C73.5262 -165.249 75.1727 -164.371 76.9666 -163.06C80.5573 -160.436 84.763 -156.056 87.163 -149.075L87.923 -146.864H74.5739V-150.147H83.4357C81.2543 -155.071 78.0558 -158.296 75.2535 -160.344C73.7893 -161.414 72.4382 -162.158 71.4083 -162.649V-143.56H94.5626C91.44 -159.234 79.9206 -171.557 65.3222 -174.806ZM95.3721 -133.352H65.3222V-95.1806C79.9206 -98.4296 91.44 -110.753 94.5626 -126.426H71.4083V-107.337C72.4382 -107.828 73.7893 -108.572 75.2535 -109.643C78.0558 -111.69 81.2543 -114.916 83.4357 -119.84H74.5739V-123.123H87.923L87.163 -120.912C84.763 -113.93 80.5573 -109.55 76.9666 -106.926C75.1727 -105.615 73.5262 -104.738 72.3207 -104.185C71.7173 -103.908 71.2223 -103.712 70.8717 -103.583C70.6964 -103.518 70.5571 -103.471 70.4581 -103.438C70.4086 -103.422 70.3692 -103.409 70.3405 -103.4L70.3054 -103.389L70.294 -103.386L70.2898 -103.385L70.2881 -103.384L70.2867 -103.384L68.3585 -102.815V-129.709H95.0864C95.2308 -130.908 95.3268 -132.123 95.3721 -133.352Z" fill="white" fill-opacity="0.5"/>
</svg>
